<?xml version="1.0" encoding="utf-8"?>
<!-- Generator: Adobe Illustrator 27.1.0, SVG Export Plug-In . SVG Version: 6.00 Build 0)  -->
<svg version="1.1" id="Capa_1" xmlns="http://www.w3.org/2000/svg" xmlns:xlink="http://www.w3.org/1999/xlink" x="0px" y="0px"
	 viewBox="0 0 150 50" style="enable-background:new 0 0 150 50;" xml:space="preserve">
<style type="text/css">
	.st0{fill:#EC1C24;}
	.st1{fill:none;}
	.st2{fill:#F4B821;}
	.st3{fill:#0962CC;}
	.st4{fill:#F05A22;}
	.st5{opacity:0.7;fill:#EC1C24;}
	.st6{fill:#F4836F;}
</style>
<g>
	<path class="st0" d="M0.05,35.96l4.09-20.43h9.08c2.74,0,4.86,0.59,6.35,1.78c1.49,1.19,2.23,2.85,2.23,4.99
		c0,1.71-0.42,3.22-1.27,4.53c-0.85,1.3-2.04,2.32-3.59,3.04c-1.55,0.72-3.37,1.08-5.47,1.08h-6.6l3.68-3.01l-1.61,8.03H0.05z
		 M8.37,28.75l-2.42-3.12h5.87c0.95,0,1.69-0.24,2.22-0.72c0.53-0.48,0.79-1.14,0.79-2c0-0.74-0.23-1.27-0.69-1.59
		c-0.46-0.32-1.09-0.48-1.88-0.48H6.91l3.68-3.21L8.37,28.75z"/>
	<path class="st0" d="M28.18,30.76h10.25l-1.05,5.2H20.39l4.09-20.43h16.61l-1.05,5.2H30.2L28.18,30.76z M29.26,23.11h9.11
		l-0.99,4.96h-9.11L29.26,23.11z"/>
	<path class="st0" d="M38.97,35.96l4.09-20.43h9.22c2.16,0,4.02,0.35,5.58,1.05c1.56,0.7,2.75,1.7,3.59,2.99
		c0.84,1.29,1.26,2.84,1.26,4.63c0,1.81-0.32,3.44-0.95,4.88c-0.63,1.44-1.52,2.68-2.66,3.71c-1.14,1.03-2.49,1.82-4.04,2.36
		c-1.56,0.55-3.27,0.82-5.14,0.82H38.97z M46.94,30.59h3.21c1.23,0,2.25-0.27,3.08-0.8c0.83-0.54,1.45-1.26,1.88-2.16
		c0.43-0.9,0.64-1.91,0.64-3.02c0-0.8-0.16-1.47-0.48-2.01c-0.32-0.54-0.8-0.96-1.43-1.26c-0.63-0.29-1.42-0.44-2.35-0.44h-2.63
		L46.94,30.59z"/>
	<path class="st0" d="M62.02,35.96l4.09-20.43H73l-4.09,20.43H62.02z"/>
</g>
<g>
	<path class="st1" d="M115.34,23.61c-2.71,0.64-4.21,3.18-3.6,5.8c0.64,2.71,3.18,4.21,6.07,3.53c2.49-0.58,3.99-2.7,3.31-5.59
		C120.55,24.91,118.63,22.83,115.34,23.61z"/>
	<path class="st2" d="M103.55,30.9c-0.62-2.65-0.34-5.05,0.51-7.12l-11.13-3.19l-2.92,9.2l9.18,2.55c-0.68,1.84-3.58,3.08-5.71,3.33
		c-4.69,0.56-8.86-3.26-9.51-8.17c-0.56-4.79,2.88-9.36,7.31-10.05c3.04-0.44,7.07,0.63,9,2.8l6.26-8.14
		c-3.69-3.89-10.88-5.59-16.58-4.95C79.1,8.54,71.54,19,72.79,29.49c1.37,10.92,11.84,18.91,22.4,17.56
		c5.61-0.69,10.37-4.24,13.07-8.84C105.96,36.4,104.25,33.85,103.55,30.9z"/>
	<path class="st3" d="M125.42,28.97l2.83-6.47c-2.4-5.58-7.96-8.11-14.83-6.5c-3.75,0.88-7.67,3.69-9.35,7.78l5.93,1.7
		c1.36,4.26,0.55,8.86-1.73,12.73c2.99,2.35,6.99,3.43,11.08,2.48c0.17-0.04,0.34-0.09,0.5-0.13c-0.29-1.51-0.12-3.11,0.58-4.57
		c1.51-3.14,4.8-4.49,8.27-3.51c0.21-0.6,0.38-1.23,0.5-1.87L125.42,28.97z M117.81,32.94c-2.89,0.68-5.44-0.82-6.07-3.53
		c-0.61-2.62,0.89-5.17,3.6-5.8c3.3-0.77,5.22,1.3,5.79,3.74C121.8,30.24,120.3,32.36,117.81,32.94z"/>
	<path class="st4" d="M109.99,25.48l-5.93-1.7c-0.85,2.07-1.13,4.47-0.51,7.12c0.69,2.95,2.4,5.51,4.71,7.31
		C110.54,34.34,111.35,29.73,109.99,25.48z"/>
	<path class="st0" d="M119.84,40.56c0.42,2.21,1.82,4.2,3.92,5.21c3.55,1.7,7.83,0.01,9.72-3.92c1.73-3.6,0.43-7.01-3.28-8.79
		c-0.51-0.24-1.01-0.43-1.52-0.58C127.33,36.33,124.14,39.38,119.84,40.56z"/>
	<path class="st0" d="M129.19,30.6l7.35,3.17L150,6.28l-12.13-5.82l-9.62,22.04c0.33,0.77,0.6,1.59,0.81,2.47
		C129.51,26.91,129.53,28.82,129.19,30.6z"/>
	<path class="st5" d="M129.19,30.6c0.34-1.78,0.31-3.69-0.14-5.63c-0.21-0.88-0.48-1.7-0.81-2.47l-2.83,6.47L129.19,30.6z"/>
	<path class="st6" d="M120.42,35.98c-0.7,1.46-0.87,3.07-0.58,4.57c4.29-1.17,7.48-4.22,8.85-8.09
		C125.22,31.49,121.93,32.84,120.42,35.98z"/>
</g>
</svg>
