<?xml version="1.0" encoding="utf-8"?>
<!-- Generator: Adobe Illustrator 27.1.0, SVG Export Plug-In . SVG Version: 6.00 Build 0)  -->
<svg version="1.1" id="Capa_1" xmlns="http://www.w3.org/2000/svg" xmlns:xlink="http://www.w3.org/1999/xlink" x="0px" y="0px"
	 viewBox="0 0 18 18" style="enable-background:new 0 0 18 18;" xml:space="preserve">
<style type="text/css">
	.st0{fill:#F52F41;}
</style>
<g>
	<g>
		<path class="st0" d="M214.18,95.38c-0.89,4.4-2.76,8.11-5.58,11.34c-4.8,5.49-11.03,8.6-18.1,9.41
			c-6.72,0.76-13.54,0.68-20.32,0.8c-1.72,0.03-2.42,0.51-2.73,2.21c-0.48,2.56-1.21,5.07-1.94,7.58c-0.73,2.5-1.78,3.27-4.34,3.29
			c-4.4,0.03-8.8,0.03-13.2,0c-2.23-0.01-3.42-1.42-2.94-3.59c0.86-3.85,1.82-7.67,2.78-11.5c0.11-0.45,0.37-0.97,0.73-1.25
			c5.57-4.34,11.6-7.85,18.39-9.93c2.18-0.67,4.36-0.42,6.35,0.53c5.54,2.64,10.82,1.94,16.2-0.58c7.5-3.53,15.24-6.47,23.39-8.16
			C213.23,95.44,213.61,95.44,214.18,95.38z"/>
		<path class="st0" d="M150.95,101.94c0.71-3.01,1.4-6.02,2.12-9.02c1.74-7.23,3.5-14.46,5.25-21.7c0.94-3.91,2.57-5.27,6.53-5.24
			c9.13,0.06,18.27,0,27.39,0.32c5.78,0.2,11.12,2.11,15.63,5.93c0.73,0.62,1.37,1.35,2.38,2.35c-1.48,0-2.45,0-3.42,0
			c-9.31,0.05-18.56,0.55-27.58,3.15c-5.43,1.57-9.05,4.93-10.46,10.41c-1.39,5.39-4.73,8.96-9.74,11.09
			c-2.54,1.08-5.12,2.09-7.68,3.13C151.22,102.22,151.08,102.08,150.95,101.94z"/>
		<path class="st0" d="M214.23,82.53c-2.34,0.19-4.43,0.36-6.53,0.52c-7.49,0.59-14.85,1.97-22.09,3.96
			c-0.32,0.09-0.65,0.15-0.98,0.2c-1.55,0.28-2.87-0.4-3.16-1.71c-0.33-1.51,0.41-2.51,1.8-2.94c2.17-0.67,4.35-1.45,6.58-1.76
			c6.87-0.96,13.77-1.66,20.64-2.58c1.83-0.24,2.68,0.5,3.11,2.1C213.78,80.98,213.96,81.61,214.23,82.53z"/>
		<path class="st0" d="M214.99,89.04c0.36,1.5-0.39,2.16-2.16,2.35c-8.27,0.9-16.27,2.99-24.17,5.54c-0.67,0.22-1.48,0.45-2.11,0.27
			c-0.76-0.21-1.86-0.76-1.97-1.33c-0.16-0.81,0.32-1.85,0.79-2.63c0.26-0.43,1.04-0.59,1.61-0.79c8.33-2.89,16.9-4.72,25.65-5.76
			C214.94,86.42,215,86.49,214.99,89.04z"/>
	</g>
</g>
<g>
	<path class="st0" d="M1,2.31c0.13-0.27,0.34-0.35,0.63-0.35c0.85,0.01,1.7,0,2.55,0c0.35,0,0.5,0.12,0.58,0.46
		c0.11,0.47,0.21,0.93,0.32,1.42c0.07,0,0.14,0,0.2,0c3.72,0,7.45,0,11.17,0c0.22,0,0.42,0.04,0.51,0.26
		c0.05,0.12,0.05,0.29,0.02,0.42c-0.34,1.21-0.69,2.42-1.03,3.64c-0.26,0.92-0.53,1.84-0.79,2.76c-0.09,0.32-0.24,0.43-0.58,0.43
		c-2.77,0-5.55,0-8.32,0c-0.22,0-0.4,0.06-0.51,0.27c-0.15,0.29,0.05,0.64,0.38,0.67c0.06,0.01,0.13,0,0.19,0c2.76,0,5.52,0,8.28,0
		c0.22,0,0.4,0.06,0.51,0.27c0.15,0.31-0.06,0.65-0.41,0.67c-0.12,0.01-0.24,0-0.36,0c-0.12,0-0.24,0-0.35,0
		c0.17,0.07,0.35,0.12,0.5,0.22c0.15,0.1,0.3,0.23,0.4,0.38c0.11,0.15,0.19,0.34,0.23,0.52c0.04,0.18,0.03,0.38,0,0.56
		c-0.1,0.64-0.74,1.15-1.4,1.13c-0.73-0.03-1.29-0.54-1.37-1.29c-0.06-0.57,0.26-1.3,1.19-1.52c-2.08,0-4.15,0-6.24,0
		c0.93,0.2,1.27,0.95,1.2,1.55c-0.09,0.74-0.69,1.26-1.4,1.26c-0.73-0.01-1.32-0.54-1.39-1.3c-0.06-0.62,0.32-1.32,1.18-1.54
		c-0.3,0-0.61,0.02-0.91-0.01c-0.58-0.06-1.07-0.53-1.18-1.09c-0.12-0.61,0.16-1.21,0.68-1.51c0.04-0.02,0.08-0.04,0.14-0.07
		C5.04,7.99,4.48,5.45,3.91,2.9c-0.48,0-0.96,0-1.43,0c-0.28,0-0.56-0.01-0.84,0C1.34,2.92,1.13,2.83,1,2.56C1,2.47,1,2.39,1,2.31z
		 M15.93,4.79c-3.56,0-7.09,0-10.64,0c0.42,1.88,0.83,3.75,1.25,5.61c2.6,0,5.19,0,7.79,0C14.86,8.53,15.39,6.66,15.93,4.79z
		 M7.11,15.1c0.26,0,0.47-0.22,0.46-0.47c0-0.26-0.22-0.47-0.47-0.46c-0.26,0-0.47,0.22-0.46,0.47C6.64,14.9,6.85,15.11,7.11,15.1z
		 M14.2,14.63c0-0.26-0.22-0.47-0.47-0.46c-0.26,0-0.47,0.22-0.46,0.47c0,0.26,0.22,0.47,0.47,0.46C14,15.1,14.21,14.89,14.2,14.63z
		"/>
</g>
</svg>
